<svg width="129" height="44" viewBox="0 0 129 44" fill="none" xmlns="http://www.w3.org/2000/svg">
<g clip-path="url(#clip0_457_5166)">
<path d="M108.652 21.818C108.652 21.818 118.014 21.66 123.291 15.8964C128.568 10.1328 130.534 3.43486 127.724 0.941183C124.915 -1.55249 118.363 1.09232 113.086 6.86281C107.809 12.6333 108.652 21.818 108.652 21.818Z" fill="white"/>
<path d="M108.652 22.1889C108.652 22.1889 107.83 31.3805 113.1 37.1441C118.37 42.9077 124.915 45.5594 127.738 43.0657C130.561 40.572 128.561 33.8741 123.298 28.1105C118.035 22.3469 108.652 22.1889 108.652 22.1889Z" fill="white"/>
<path d="M108.297 21.7767C108.297 21.7767 108.82 15.9856 105.509 12.3447C102.198 8.70382 98.057 7.04137 96.2865 8.61452C94.5159 10.1877 95.7636 14.4056 99.0747 18.0465C102.386 21.6874 108.297 21.7767 108.297 21.7767Z" fill="white"/>
<path d="M108.297 22.1546C108.297 22.1546 102.393 22.2507 99.0747 25.8917C95.7567 29.5326 94.495 33.7505 96.2865 35.3237C98.0779 36.8968 102.191 35.2206 105.509 31.5866C108.827 27.9525 108.297 22.1546 108.297 22.1546Z" fill="white"/>
<path d="M108.325 16.3085C108.325 16.3085 109.573 9.27402 109.245 7.55661C108.917 5.8392 107.502 6.02468 106.694 6.34068C105.697 6.73912 105.488 7.94818 105.815 9.69993C106.143 11.4517 108.325 16.3085 108.325 16.3085Z" fill="white"/>
<path d="M105.815 33.936C105.488 35.6946 105.697 36.9037 106.694 37.2952C107.502 37.6181 108.924 37.8379 109.245 36.0862C109.566 34.3344 108.325 27.2999 108.325 27.2999C108.325 27.2999 106.143 32.1842 105.815 33.936Z" fill="white"/>
<path d="M123.702 18.5892C121.297 18.7404 112.591 22.1065 112.591 22.1065C112.591 22.1065 121.346 24.4628 123.744 24.3116C126.142 24.1605 128.54 22.8209 128.066 20.2517C127.815 18.864 126.107 18.4381 123.702 18.5892Z" fill="white"/>
<path d="M97.827 21.4195C97.6667 22.5667 98.7541 23.1163 99.8276 23.1369C100.901 23.1575 105.767 21.9828 105.767 21.9828C105.767 21.9828 100.81 20.6089 99.737 20.6089C98.6635 20.6089 97.9176 20.7944 97.827 21.4195Z" fill="white"/>
<path d="M11.4599 12.7157H3.68054V16.6176H9.54988V19.8464H3.68054V28.3166H0V9.48697H11.4599V12.7157Z" fill="white"/>
<path d="M16.3951 9.22592V28.3166H12.854V9.22592H16.3951Z" fill="white"/>
<path d="M23.0033 34.781H19.267L22.9267 27.0045L17.0016 15.2781H20.9121L24.7878 23.1026L28.3568 15.2781H32.0653L23.0033 34.781Z" fill="white"/>
<path d="M33.0551 9.48697H39.5449C40.4013 9.46219 41.2561 9.5759 42.0752 9.82358C42.7443 10.0419 43.3609 10.3928 43.8871 10.8547C44.4134 11.3167 44.8382 11.8798 45.1354 12.5096C45.4512 13.1665 45.6132 13.8849 45.6094 14.6117C45.607 15.2135 45.4838 15.8088 45.2469 16.3635C45.0526 16.8727 44.759 17.3395 44.3825 17.7374C45.2556 18.1726 45.982 18.8479 46.4737 19.6815C47.0028 20.5504 47.2779 21.5466 47.2684 22.5599C47.2725 23.3236 47.1133 24.0796 46.8014 24.7788C46.4965 25.4656 46.0638 26.09 45.5257 26.6198C44.3779 27.7465 42.7119 28.3098 40.5277 28.3098H33.0551V9.48697ZM36.7357 12.7157V16.7482H39.3357C39.7047 16.7782 40.0761 16.7327 40.4264 16.6145C40.7767 16.4963 41.0983 16.3079 41.3712 16.0612C41.7232 15.7019 41.9184 15.221 41.9149 14.7216C41.9253 14.2108 41.7298 13.7167 41.3712 13.3477C41.0983 13.101 40.7767 12.9126 40.4264 12.7944C40.0761 12.6762 39.7047 12.6307 39.3357 12.6607L36.7357 12.7157ZM36.7357 25.081H40.4301C40.875 25.1217 41.3235 25.0693 41.7463 24.9272C42.1692 24.7851 42.5568 24.5566 42.8838 24.2567C43.3213 23.7887 43.5641 23.1756 43.5641 22.5393C43.5641 21.9029 43.3213 21.2899 42.8838 20.8219C42.5601 20.516 42.1735 20.2823 41.7502 20.1365C41.3269 19.9907 40.8767 19.9363 40.4301 19.9769H36.7357V25.081Z" fill="white"/>
<path d="M48.9205 25.2253C48.3218 24.1829 48.0071 23.0055 48.0071 21.8077C48.0071 20.6098 48.3218 19.4324 48.9205 18.39C49.5212 17.3569 50.3959 16.5043 51.4508 15.9238C52.5497 15.3248 53.785 15.0106 55.0408 15.0106C56.2966 15.0106 57.5318 15.3248 58.6307 15.9238C59.6861 16.5061 60.5626 17.3581 61.168 18.39C61.7685 19.4381 62.084 20.6213 62.084 21.8248C62.084 23.0284 61.7685 24.2116 61.168 25.2596C60.562 26.2876 59.6853 27.1349 58.6307 27.7121C57.5304 28.3068 56.2957 28.6185 55.0408 28.6185C53.7858 28.6185 52.5512 28.3068 51.4508 27.7121C50.3921 27.1273 49.5167 26.2671 48.9205 25.2253V25.2253ZM52.5313 19.2693C51.8988 19.9679 51.5493 20.8714 51.5493 21.8077C51.5493 22.7439 51.8988 23.6474 52.5313 24.346C53.1988 25.0008 54.1024 25.3685 55.0442 25.3685C55.9861 25.3685 56.8897 25.0008 57.5572 24.346C58.1854 23.6454 58.5322 22.7426 58.5322 21.8077C58.5322 20.8727 58.1854 19.9699 57.5572 19.2693C57.228 18.9426 56.8365 18.6833 56.4053 18.5064C55.974 18.3294 55.5114 18.2383 55.0442 18.2383C54.5771 18.2383 54.1145 18.3294 53.6832 18.5064C53.2519 18.6833 52.8604 18.9426 52.5313 19.2693V19.2693Z" fill="white"/>
<path d="M76.2735 15.2781L69.7977 21.1379L77.0821 28.3166H72.3142L66.7376 22.6698V28.3166H63.1756V9.22592H66.7167V19.5304L71.2755 15.3124L76.2735 15.2781Z" fill="white"/>
<path d="M82.9515 28.5777C82.0784 28.5829 81.2156 28.3926 80.4281 28.0212C79.6583 27.666 78.9812 27.142 78.4484 26.4893C77.5124 25.2511 77.0418 23.7311 77.117 22.1889V15.2781H80.6581V22.3194C80.6036 23.1229 80.8518 23.9178 81.3552 24.5521C81.6059 24.8223 81.9138 25.035 82.2571 25.175C82.6004 25.3151 82.9707 25.3792 83.3418 25.3627C83.976 25.3722 84.5989 25.1978 85.1333 24.8612C85.6213 24.5639 86.0549 24.1877 86.4159 23.7483V15.2781H89.9222V28.3304H86.5135V26.297C86.4749 26.622 86.3596 26.9335 86.1768 27.2067C85.994 27.4799 85.7488 27.7071 85.4609 27.8701C84.7204 28.3594 83.8425 28.6069 82.9515 28.5777V28.5777Z" fill="white"/>
</g>
<defs>
<clipPath id="clip0_457_5166">
<rect width="129" height="44" fill="white"/>
</clipPath>
</defs>
</svg>
