<svg width="108" height="33" viewBox="0 0 108 33" fill="none" xmlns="http://www.w3.org/2000/svg">
<path d="M26.4307 26.8344C25.5868 27.3225 24.7493 27.8201 23.9023 28.3018C21.6891 29.5601 19.4759 30.8216 17.25 32.064C15.6068 32.9831 13.9445 32.9831 12.33 32.0164C8.97683 30.0133 5.63317 27.9944 2.30225 25.9533C0.582656 24.8978 -0.0892602 23.2909 0.0158261 21.3259C0.130466 21.1135 0.331085 20.9994 0.531705 20.8853C3.08562 19.4115 5.63317 17.925 8.17435 16.4322C8.33994 16.334 8.50235 16.2325 8.70934 16.2452C10.0022 16.8791 11.19 17.6905 12.4479 18.3878C13.3204 18.8727 14.1547 19.4178 15.0368 19.8806C16.7214 20.9772 18.4887 21.9312 20.2147 22.9613C22.1699 24.1277 24.1475 25.256 26.0995 26.4287C26.2524 26.5206 26.4721 26.5776 26.4307 26.8344Z" fill="#EE3D50"/>
<path d="M3.68756 5.73255C6.77009 3.98935 9.82715 2.20812 12.9383 0.521963C14.3395 -0.238707 15.8553 -0.143623 17.2373 0.648741C20.6733 2.62014 24.0934 4.6169 27.4944 6.64536C28.9051 7.48526 29.628 8.79425 29.7108 10.436C29.7299 10.7973 29.7235 11.1618 29.7299 11.5232C29.6471 11.7609 29.4337 11.8623 29.2363 11.9764C26.7652 13.39 24.3068 14.8194 21.8452 16.2456C21.6319 16.3693 21.4249 16.5182 21.1637 16.5246C20.7179 16.4897 20.3963 16.1918 20.0396 15.9762C18.3009 14.9367 16.5686 13.8812 14.8235 12.848C11.7919 10.9146 8.71578 9.05415 5.66828 7.14613C5.16514 6.83236 4.65244 6.53126 4.16204 6.20163C3.97734 6.07802 3.73851 5.99562 3.68756 5.73255Z" fill="#0BA04B"/>
<path d="M3.68759 5.73291C7.34332 7.99907 10.9959 10.2652 14.6516 12.5314C14.7312 12.5821 14.8013 12.6487 14.8745 12.7057C14.8522 12.9371 14.658 13.0068 14.4956 13.1019C12.7632 14.1288 11.0182 15.1367 9.27627 16.1477C9.09794 16.2523 8.91961 16.3791 8.69033 16.3284C5.90077 17.948 3.11439 19.5644 0.324822 21.184C0.226105 21.2411 0.121018 21.2791 0.0159319 21.3266C0.0541452 17.6247 -0.08597 13.9165 0.0955428 10.2177C0.178338 8.51886 1.04769 7.22572 2.52845 6.36046C2.9074 6.1386 3.30227 5.94209 3.68759 5.73291Z" fill="#FCB415"/>
<path d="M21.1288 16.4451C23.8451 14.8889 26.5646 13.3327 29.2809 11.7765C29.4306 11.6909 29.5803 11.6085 29.7299 11.5229C29.714 13.6053 29.6981 15.6876 29.679 17.7668C29.6631 19.2374 29.6312 20.708 29.6248 22.1818C29.6121 24.4512 28.4721 25.9472 26.4309 26.8346C24.9023 25.9218 23.377 25.0058 21.8421 24.1025C19.7276 22.8569 17.6068 21.624 15.4923 20.3848C15.3108 20.2802 15.1484 20.1439 14.9764 20.0234C14.9892 19.7889 15.1898 19.7223 15.349 19.6273C17.075 18.6257 18.8073 17.6368 20.5365 16.6416C20.7212 16.537 20.909 16.4451 21.1288 16.4451Z" fill="#FCB415"/>
<path d="M101.029 13.9443C102.01 12.9808 103.048 12.3659 104.357 12.3659C106.468 12.3691 107.949 13.7985 107.991 15.9855C108.029 17.8966 107.94 19.8078 107.924 21.719C107.92 22.0043 107.815 22.074 107.551 22.0581C107.131 22.0328 106.704 22.0138 106.284 22.0391C105.902 22.0645 105.847 21.8965 105.857 21.5669C105.898 19.9251 105.93 18.2801 105.937 16.6384C105.943 15.2375 105.258 14.4197 103.981 14.2296C102.666 14.0362 101.408 14.7969 101.042 16.0013C100.953 16.2992 100.953 16.6067 100.947 16.9109C100.918 18.4386 100.883 19.9695 100.877 21.4971C100.873 21.8458 100.781 21.9726 100.421 21.9409C99.9085 21.8965 99.2334 22.0835 98.9181 21.8236C98.5837 21.5479 98.8289 20.8569 98.8353 20.3498C98.864 17.903 98.9245 15.4593 98.9436 13.0125C98.9468 12.5466 99.0136 12.293 99.5614 12.3913C100.026 12.4737 100.654 12.2075 100.934 12.5307C101.163 12.7938 101.01 13.3865 101.029 13.9443Z" fill="#0BA04B"/>
<path d="M37.5414 9.44697C37.5318 9.95408 37.5382 10.4644 37.5095 10.9715C37.4936 11.2694 37.5828 11.3772 37.8885 11.3677C38.3884 11.3518 38.8884 11.3898 39.3852 11.3835C39.6335 11.3803 39.745 11.4627 39.7068 11.7131C39.7036 11.7321 39.7036 11.7512 39.7068 11.7702C39.745 13.2281 39.745 13.2281 38.2515 13.2028C37.4841 13.1901 37.4841 13.1901 37.4713 13.9317C37.4458 15.2693 37.4172 16.6068 37.4013 17.9443C37.3885 18.9522 37.9394 19.4561 38.9362 19.2247C39.5157 19.0885 39.6304 19.2723 39.7227 19.7699C39.9074 20.7588 39.9329 20.7461 38.9521 20.9267C38.5317 21.0028 38.1114 21.0155 37.691 20.9933C36.1466 20.9077 35.3123 20.0203 35.3346 18.4768C35.3568 16.873 35.376 15.2661 35.4237 13.6623C35.4365 13.2788 35.3632 13.1013 34.9365 13.1362C34.7614 13.1521 34.4684 13.2725 34.4015 12.9936C34.3474 12.7686 34.3315 12.5087 34.5416 12.2995C35.5001 11.3391 36.4491 10.3724 37.4044 9.40576C37.449 9.41844 37.4968 9.43429 37.5414 9.44697Z" fill="#0BA04B"/>
<path d="M54.078 13.4848C54.8741 12.4547 55.8262 11.7891 57.1032 11.5989C57.5363 11.5355 57.8261 11.5736 57.721 12.1156C57.7114 12.1694 57.7178 12.2297 57.7178 12.2867C57.7082 12.7273 57.8324 13.2312 57.6509 13.5862C57.4503 13.9887 56.8675 13.7605 56.4631 13.8619C55.0492 14.2106 54.1321 15.2818 54.0493 16.8412C53.9825 18.1185 53.9729 19.399 53.9665 20.6794C53.9633 21.0503 53.8646 21.1961 53.4793 21.1485C52.9698 21.0883 52.3074 21.3355 51.9858 21.0217C51.6865 20.7301 51.9158 20.0804 51.9221 19.5891C51.9572 17.1075 52.0113 14.6226 52.0368 12.1409C52.04 11.7511 52.0877 11.5324 52.559 11.5989C53.0494 11.6687 53.6927 11.4214 54.0016 11.7194C54.3168 12.0205 54.0557 12.6575 54.0812 13.1488C54.0875 13.2597 54.078 13.3707 54.078 13.4848Z" fill="#0BA04B"/>
<path d="M61.3386 13.6112C62.1538 12.5463 63.1314 11.8839 64.4371 11.7127C64.8415 11.6588 65.0771 11.7286 64.9816 12.2008C64.9752 12.2388 64.9784 12.2769 64.9784 12.3149C64.9657 12.7935 65.1026 13.345 64.902 13.7253C64.6982 14.112 64.0772 13.8901 63.6473 14.0074C62.2525 14.3909 61.3832 15.44 61.3036 16.9835C61.2399 18.2418 61.2271 19.5032 61.224 20.7647C61.224 21.1482 61.1475 21.332 60.7208 21.275C60.2145 21.2052 59.5298 21.4683 59.2401 21.1355C58.9949 20.8503 59.17 20.191 59.1795 19.6998C59.2178 17.2181 59.2719 14.7332 59.2942 12.2515C59.2974 11.8268 59.3961 11.6683 59.8355 11.7286C60.3228 11.7951 60.9596 11.5479 61.2749 11.8585C61.5711 12.1469 61.3195 12.765 61.3418 13.2372C61.3481 13.3577 61.3418 13.4844 61.3386 13.6112Z" fill="#0BA04B"/>
<path d="M83.3144 20.5173C82.1807 21.6361 80.7891 21.877 79.3179 21.6361C77.2226 21.297 75.8341 19.5633 75.7195 17.275C75.6749 16.3685 75.7736 15.4779 76.1239 14.6348C77.3213 11.7474 80.9197 11.0311 83.4131 13.1832C83.4386 13.161 83.4863 13.142 83.4895 13.1198C83.5628 12.1278 83.5628 12.1278 84.6072 12.1468C85.5944 12.1626 85.5944 12.1626 85.5785 13.142C85.5339 15.7219 85.4893 18.3019 85.4479 20.8786C85.4416 21.3762 85.4065 21.8707 85.3046 22.3588C84.9958 23.8135 84.2092 24.8943 82.7507 25.3349C80.5376 26.0036 78.4008 25.8103 76.3691 24.6439C75.9902 24.4253 75.9583 24.2319 76.194 23.896C76.4233 23.5695 76.5315 23.0592 76.8341 22.9071C77.1652 22.7423 77.506 23.2113 77.8626 23.3667C78.8339 23.7945 79.837 23.9942 80.891 23.8357C82.6711 23.5695 83.5468 22.3778 83.3144 20.5173ZM80.7859 13.8266C79.0345 13.7917 77.8658 14.9708 77.8563 16.7805C77.8467 18.5808 79.0218 19.8264 80.77 19.8644C82.3559 19.8993 83.4513 18.6917 83.4736 16.8819C83.4991 15.0532 82.4482 13.8614 80.7859 13.8266Z" fill="#0BA04B"/>
<path d="M46.4958 17.3387C45.4195 17.3197 44.3463 17.3229 43.27 17.2753C42.7605 17.2531 42.7828 17.4401 42.9547 17.7983C43.461 18.8474 44.7157 19.4749 46.1646 19.3798C46.8811 19.3323 47.5722 19.1675 48.1772 18.7745C48.4542 18.5938 48.6166 18.6255 48.8491 18.86C49.7503 19.7728 49.7694 19.8236 48.6135 20.4353C46.7506 21.421 44.8367 21.4083 42.9834 20.4575C41.0727 19.4781 40.248 17.2341 40.8307 14.9141C41.337 12.892 43.2063 11.4277 45.3303 11.3738C48.3046 11.2977 50.6197 13.1931 50.3139 17.0059C50.2885 17.3292 50.142 17.4084 49.8331 17.3989C48.7217 17.3641 47.6104 17.3577 46.4958 17.3387ZM47.7346 15.7793C48.1422 15.8047 48.225 15.6684 48.1517 15.2976C47.9065 14.0773 46.8939 13.2913 45.5182 13.2818C44.1298 13.2723 43.0598 14.0805 42.8146 15.2944C42.7541 15.5987 42.8146 15.7001 43.1362 15.6969C43.9228 15.6906 44.7093 15.7159 45.4927 15.7318C46.2411 15.7445 46.9894 15.735 47.7346 15.7793Z" fill="#0BA04B"/>
<path d="M72.0859 20.3938C70.5892 21.7408 68.9301 21.7788 67.2042 21.1513C66.1692 20.7741 65.5355 20.0071 65.4368 18.8851C65.3349 17.7156 65.7871 16.8028 66.7902 16.1657C68.1722 15.2878 69.6657 15.3575 71.1879 15.6364C71.2834 15.6523 71.3726 15.684 71.4681 15.703C72.2356 15.871 72.2865 15.8076 72.0923 15.0089C71.8916 14.1753 71.3248 13.7538 70.516 13.6333C69.3536 13.4558 68.2168 13.5953 67.1214 14.0041C66.7774 14.1341 66.6055 14.1468 66.4749 13.7252C66.1214 12.5937 66.096 12.5937 67.2487 12.2292C68.2996 11.8965 69.3727 11.7412 70.4809 11.7982C72.7928 11.9218 74.159 13.2308 74.2131 15.5382C74.2545 17.4081 74.1653 19.2845 74.1494 21.1576C74.1462 21.446 74.0379 21.5253 73.7736 21.4936C73.6399 21.4777 73.5062 21.4872 73.3692 21.4841C73.003 21.4746 72.5858 21.576 72.2897 21.4302C71.9458 21.2527 72.2547 20.7614 72.0859 20.3938ZM68.1499 17.3036C67.3602 17.8043 67.2424 18.9453 67.978 19.5032C68.8983 20.2004 69.93 20.1973 70.9713 19.7535C71.898 19.3574 72.1751 18.603 72.1368 17.6585C72.1273 17.3923 72.0732 17.2528 71.7866 17.1768C71.2452 17.0341 70.7038 16.9359 70.1466 16.9074C69.446 16.8693 68.7582 16.9169 68.1499 17.3036Z" fill="#0BA04B"/>
<path d="M92.2849 12.1596C95.1796 12.2103 97.3259 14.3497 97.2686 17.1293C97.2113 19.9121 94.9949 21.9659 92.1002 21.9121C89.1833 21.8582 87.0656 19.7156 87.1261 16.8758C87.1866 14.1184 89.3871 12.1089 92.2849 12.1596ZM92.1353 20.0579C93.8644 20.0833 95.1254 18.8472 95.1732 17.085C95.221 15.3196 94.0236 14.0581 92.2595 14.0138C90.4825 13.9726 89.2406 15.1611 89.2056 16.936C89.1674 18.7489 90.3743 20.0326 92.1353 20.0579Z" fill="#0BA04B"/>
</svg>
