<svg width="146" height="47" viewBox="0 0 146 47" fill="none" xmlns="http://www.w3.org/2000/svg">
<g clip-path="url(#clip0_39_125)">
<path d="M132.007 0C129.37 0 126.792 0.78199 124.599 2.24708C122.406 3.71216 120.697 5.79454 119.688 8.23089C118.679 10.6672 118.415 13.3481 118.93 15.9345C119.444 18.521 120.714 20.8967 122.579 22.7614C124.443 24.6261 126.819 25.896 129.405 26.4105C131.992 26.9249 134.673 26.6609 137.109 25.6517C139.545 24.6426 141.628 22.9336 143.093 20.7409C144.558 18.5483 145.34 15.9704 145.34 13.3333C145.34 9.79711 143.935 6.40573 141.435 3.90524C138.934 1.40476 135.543 0 132.007 0Z" fill="#F9A431"/>
<path d="M128.213 15.8733L127.493 14.9133L124.967 15.84L126.447 17.7L126.693 18.0067L127.327 18.8C127.42 18.7875 127.511 18.7581 127.593 18.7133L129.353 17.32L128.213 15.8733Z" fill="white"/>
<path d="M131.04 10.34L128.973 12.06L133.12 14.6267H133.153V14.5667L134.433 12.4733L131.04 10.34Z" fill="white"/>
<path d="M136.227 7.82668C134.601 11.3795 131.673 14.1719 128.047 15.6267C127.587 15.8133 127.127 15.98 126.647 16.1267L126.44 17.68L126.687 17.9867L127.32 18.78C127.413 18.7675 127.504 18.7381 127.587 18.6933C130.173 17.9219 132.552 16.5755 134.544 14.7548C136.537 12.9342 138.092 10.6866 139.093 8.18001L136.227 7.82668Z" fill="white"/>
<path d="M14.5734 18.5267H4.68009V23.56H12.1601V27.7333H4.68009V38.66H0.0134277V14.36H14.5734V18.5267Z" fill="white"/>
<path d="M20.8267 14.02V38.6866H16.3467V14.02H20.8267Z" fill="white"/>
<path d="M29.2334 47H24.5067L29.1734 36.9667L21.6267 21.8333H26.5934L31.4934 31.9333L36.04 21.8333H40.8267L29.2334 47Z" fill="white"/>
<path d="M46.0935 14.36H54.3468C55.4366 14.3279 56.5243 14.4743 57.5668 14.7933C58.3897 15.0656 59.1492 15.501 59.8002 16.0733C60.4982 16.6758 61.0616 17.4186 61.4535 18.2533C61.853 19.1018 62.0579 20.0288 62.0535 20.9666C62.0519 21.7445 61.8979 22.5146 61.6002 23.2333C61.3493 23.8928 60.9761 24.499 60.5002 25.02C61.615 25.5768 62.5421 26.4483 63.1668 27.5266C63.7475 28.5127 64.0875 29.6218 64.1594 30.7639C64.2312 31.906 64.0327 33.0489 63.5802 34.1C63.1972 34.9892 62.6447 35.7953 61.9535 36.4733C60.4957 37.9311 58.3779 38.66 55.6002 38.66H46.0935V14.36ZM50.7602 18.5266V23.7333H54.0935C54.5621 23.7746 55.0342 23.7189 55.4804 23.5698C55.9265 23.4207 56.3372 23.1814 56.6868 22.8666C57.1323 22.3982 57.3808 21.7764 57.3808 21.13C57.3808 20.4835 57.1323 19.8617 56.6868 19.3933C56.3381 19.0772 55.9275 18.837 55.4811 18.6878C55.0347 18.5386 54.5622 18.4837 54.0935 18.5266H50.7602ZM50.7602 34.5266H55.4268C56.8668 34.5266 57.9068 34.1711 58.5468 33.46C59.1048 32.8553 59.4147 32.0627 59.4147 31.24C59.4147 30.4172 59.1048 29.6246 58.5468 29.02C57.9068 28.2911 56.8668 27.9288 55.4268 27.9333H50.7602V34.5266Z" fill="white"/>
<path d="M66.2667 34.6734C65.685 33.6753 65.3068 32.572 65.1539 31.427C65.001 30.2819 65.0764 29.118 65.3758 28.0023C65.6751 26.8866 66.1926 25.8412 66.8981 24.9266C67.6037 24.012 68.4835 23.2461 69.4867 22.6734C70.8869 21.9036 72.4588 21.5001 74.0567 21.5001C75.6545 21.5001 77.2265 21.9036 78.6267 22.6734C79.9657 23.4285 81.0777 24.5289 81.8467 25.86C82.6073 27.2066 83.007 28.7268 83.007 30.2734C83.007 31.8199 82.6073 33.3402 81.8467 34.6867C81.0788 36.0135 79.9661 37.1077 78.6267 37.8534C77.2251 38.6189 75.6537 39.0201 74.0567 39.0201C72.4597 39.0201 70.8882 38.6189 69.4867 37.8534C68.1455 37.1041 67.0326 36.0051 66.2667 34.6734ZM70.86 26.96C70.0569 27.8612 69.6131 29.0262 69.6131 30.2334C69.6131 31.4405 70.0569 32.6055 70.86 33.5067C71.2793 33.9274 71.7775 34.2612 72.3261 34.4889C72.8746 34.7167 73.4627 34.8339 74.0567 34.8339C74.6506 34.8339 75.2387 34.7167 75.7873 34.4889C76.3358 34.2612 76.834 33.9274 77.2533 33.5067C78.0565 32.6055 78.5002 31.4405 78.5002 30.2334C78.5002 29.0262 78.0565 27.8612 77.2533 26.96C76.8349 26.5378 76.337 26.2026 75.7884 25.9738C75.2397 25.745 74.6511 25.6273 74.0567 25.6273C73.4622 25.6273 72.8737 25.745 72.325 25.9738C71.7763 26.2026 71.2784 26.5378 70.86 26.96Z" fill="white"/>
<path d="M101.06 21.8333L92.8265 29.3933L102.1 38.66H96.0332L88.9132 31.3733V38.66H84.4065V13.9933H88.9132V27.2467L94.7065 21.8067L101.06 21.8333Z" fill="white"/>
<path d="M109.54 39C108.428 39.0067 107.329 38.7605 106.327 38.28C105.349 37.8115 104.489 37.1278 103.813 36.28C102.616 34.6815 102.014 32.7149 102.113 30.72V21.8334H106.627V30.92C106.546 31.9514 106.847 32.9765 107.473 33.8C107.792 34.1485 108.184 34.4228 108.62 34.6037C109.057 34.7845 109.528 34.8675 110 34.8467C110.807 34.8511 111.597 34.6193 112.273 34.18C112.895 33.7926 113.449 33.3062 113.913 32.74V21.8067H118.44V38.6334H114.1V36.0267C114.052 36.4461 113.906 36.8485 113.674 37.2015C113.443 37.5546 113.132 37.8486 112.767 38.06C111.817 38.7057 110.688 39.0347 109.54 39Z" fill="white"/>
<path d="M119.107 37.1467H120.2V37.4067H119.8V38.66H119.494V37.4067H119.094L119.107 37.1467Z" fill="white"/>
<path d="M120.633 37.1467L121.187 38.0533L121.74 37.1467H121.947V38.66H121.653V37.8133L121.287 38.4133H121.087L120.72 37.8133V38.66H120.427V37.1467H120.633Z" fill="white"/>
</g>
<defs>
<clipPath id="clip0_39_125">
<rect width="145.333" height="47" fill="white"/>
</clipPath>
</defs>
</svg>
